<?xml version="1.0" encoding="UTF-8"?>
<svg width="162px" height="25px" viewBox="0 0 162 25" version="1.1" xmlns="http://www.w3.org/2000/svg" xmlns:xlink="http://www.w3.org/1999/xlink">
    <defs>
        <style>@import url('https://fonts.googleapis.com/css?family=Open+Sans:600');</style> 
    </defs>
    <g id="Logo" stroke="none" stroke-width="1" fill="none" fill-rule="evenodd">
        <g id="Group-2">
            <text id="fluentcode" font-family="Open Sans" font-size="24" font-weight="600" line-spacing="19" letter-spacing="-0.578823626" fill="#FFFFFF">
                <tspan x="34" y="20">fluentcode</tspan>
            </text>
            <g id="Group">
                <ellipse id="Oval" fill="#FFFFFF" cx="17" cy="10.5" rx="12" ry="10.5"></ellipse>
                <polygon id="Rectangle" fill="#FFFFFF" transform="translate(6.427979, 18.056269) rotate(-128.000000) translate(-6.427979, -18.056269) " points="5.88887989 13.9648728 10.9279787 21.0960498 1.92797866 22.1476656"></polygon>
                <path d="M11.5584809,12.5842669 C11.5584809,11.8577534 11.0389925,11.4945021 10,11.4945021 L10,10.3754425 C10.5273082,10.3754425 10.9188775,10.2865826 11.1747196,10.1088602 C11.4305617,9.93113784 11.5584809,9.66065232 11.5584809,9.29739556 L11.5584809,7.47526188 C11.5584809,6.86592796 11.7703775,6.41772271 12.194177,6.13063269 C12.6179766,5.84354267 13.2536664,5.69999981 14.1012655,5.69999981 L14.1012655,6.76632884 C13.655983,6.78585878 13.3327675,6.8766716 13.1316092,7.03877005 C12.9304508,7.2008685 12.8298732,7.44205956 12.8298732,7.76235047 L12.8298732,9.50245883 C12.8298732,10.2797502 12.3826444,10.7445556 11.4881735,10.8968891 L11.4881735,10.9671965 C12.3826444,11.107812 12.8298732,11.5706645 12.8298732,12.3557678 L12.8298732,14.1075941 C12.8298732,14.427885 12.9294744,14.6700526 13.1286797,14.834104 C13.327885,14.9981554 13.652077,15.0840859 14.1012655,15.0918978 L14.1012655,16.1640858 C13.1989826,16.1562738 12.549622,16.0029662 12.1531644,15.7041582 C11.7567067,15.4053502 11.5584809,14.9219916 11.5584809,14.2540679 L11.5584809,12.5842669 Z M19.6216515,14.3829648 C19.6216515,14.9922987 19.4273316,15.4395275 19.0386859,15.7246645 C18.6500402,16.0098015 18.0280212,16.1562738 17.1726101,16.1640858 L17.1726101,15.0918978 C17.5436788,15.0879918 17.8327175,15.0128027 18.0397348,14.8663282 C18.2467521,14.7198537 18.3502592,14.4669449 18.3502592,14.1075941 L18.3502592,12.572549 C18.3502592,12.0999246 18.4537663,11.7347203 18.6607836,11.4769252 C18.8678009,11.2191301 19.2115225,11.0492222 19.6919589,10.9671965 L19.6919589,10.8968891 C18.797488,10.7445556 18.3502592,10.2797502 18.3502592,9.50245883 L18.3502592,7.76235047 C18.3502592,7.44205956 18.2613993,7.2008685 18.0836769,7.03877005 C17.9059545,6.8766716 17.6022686,6.78585878 17.1726101,6.76632884 L17.1726101,5.69999981 C18.0436451,5.69999981 18.6695701,5.84940156 19.0504038,6.14820954 C19.4312375,6.44701752 19.6216515,6.93623501 19.6216515,7.6158767 L19.6216515,9.29739556 C19.6216515,9.68799422 19.7456647,9.96531512 19.9936949,10.1293666 C20.241725,10.293418 20.6098588,10.3754425 21.0981071,10.3754425 L21.0981071,11.4945021 C20.6176707,11.4945021 20.25149,11.5775031 19.9995538,11.7435075 C19.7476177,11.9095119 19.6216515,12.1897623 19.6216515,12.5842669 L19.6216515,14.3829648 Z M23.3983725,12.8713555 L23.4862567,13.0061114 C23.2987694,13.7326249 22.9550477,14.6680947 22.4550814,15.8125488 L21.4414829,15.8125488 C21.710996,14.7579324 21.9121513,13.7775444 22.0449548,12.8713555 L23.3983725,12.8713555 Z M21.8398916,8.52987301 C21.8398916,7.94006902 22.1289302,7.64517145 22.7070163,7.64517145 C22.9999653,7.64517145 23.2186972,7.72329001 23.3632187,7.87952948 C23.5077403,8.03576895 23.5799999,8.25254796 23.5799999,8.52987301 C23.5799999,8.80719807 23.5048108,9.02690652 23.3544303,9.18900497 C23.2040498,9.35110341 22.9882473,9.43215142 22.7070163,9.43215142 C22.4257852,9.43215142 22.2109592,9.3520799 22.0625317,9.19193444 C21.9141042,9.03178899 21.8398916,8.81110405 21.8398916,8.52987301 Z" id="{-};-copy" fill="#494949"></path>
            </g>
        </g>
    </g>
</svg>